<?xml version="1.0" encoding="UTF-8"?><svg id="Layer_1" xmlns="http://www.w3.org/2000/svg" viewBox="0 0 24 23.11"><defs><style>.cls-1{fill:#fca326;}.cls-2{fill:#fc6d26;}.cls-3{fill:#e24329;}</style></defs><path class="cls-3" d="M23.6,9.14l-.03-.09L20.3.54c-.07-.17-.18-.31-.34-.41-.15-.1-.33-.14-.51-.13-.18,0-.35.07-.49.19-.14.11-.24.27-.29.44l-2.21,6.75H7.54L5.33.63c-.05-.17-.15-.33-.29-.44-.14-.11-.31-.18-.49-.19-.18,0-.36.04-.51.13-.15.1-.27.24-.34.41L.43,9.07l-.03.08c-.47,1.23-.53,2.57-.16,3.84.36,1.26,1.12,2.37,2.17,3.17h.01s.03.03.03.03l4.98,3.73,2.46,1.86,1.5,1.13c.18.13.39.2.61.2s.43-.07.61-.2l1.5-1.13,2.46-1.86,5.01-3.75h.01c1.05-.8,1.82-1.91,2.18-3.18.36-1.27.31-2.61-.16-3.84Z"/><path class="cls-2" d="M23.6,9.14l-.03-.09c-1.59.33-3.09,1-4.39,1.98l-7.16,5.43c2.44,1.85,4.57,3.45,4.57,3.45l5-3.75h.01c1.05-.8,1.81-1.92,2.17-3.18.36-1.27.3-2.61-.17-3.84Z"/><path class="cls-1" d="M7.43,19.91l2.46,1.86,1.5,1.13c.18.13.39.2.61.2s.43-.07.61-.2l1.5-1.13,2.46-1.86s-2.13-1.61-4.57-3.45l-4.56,3.45Z"/><path class="cls-2" d="M4.83,11.03c-1.3-.97-2.8-1.65-4.39-1.97l-.03.08c-.47,1.23-.53,2.58-.17,3.84.36,1.26,1.13,2.38,2.18,3.17h.01s.03.03.03.03l4.98,3.73,4.58-3.45-7.18-5.42Z"/></svg>