<?xml version="1.0" encoding="UTF-8"?><svg id="uuid-67176a1a-3f42-43e8-953e-2a5f762a7805" xmlns="http://www.w3.org/2000/svg" viewBox="0 0 156.95 291.91">
<title>Java logo - Brandlogos.net</title><path d="M150.34,230.19h-1.1v-.62h2.96v.62h-1.09v3.07h-.77v-3.07ZM156.24,230.35h-.02l-1.09,2.91h-.5l-1.08-2.91h-.01v2.91h-.72v-3.68h1.07l1,2.61,1-2.61h1.06v3.68h-.71v-2.91h0Z" style="fill:#e76f00;"/><path d="M51.89,154.84s-7.65,4.45,5.45,5.96c15.87,1.81,23.97,1.55,41.46-1.76,0,0,4.6,2.88,11.02,5.38-39.2,16.8-88.71-.97-57.92-9.58" style="fill:#5382a1;"/><path d="M47.1,132.92s-8.58,6.35,4.52,7.71c16.95,1.75,30.33,1.89,53.49-2.57,0,0,3.2,3.25,8.24,5.02-47.39,13.86-100.17,1.09-66.26-10.16" style="fill:#5382a1;"/><path d="M87.48,95.74c9.66,11.12-2.54,21.12-2.54,21.12,0,0,24.52-12.66,13.26-28.51-10.52-14.78-18.58-22.13,25.08-47.45,0,0-68.54,17.12-35.81,54.84" style="fill:#e76f00;"/><path d="M139.32,171.06s5.66,4.67-6.24,8.27c-22.62,6.85-94.16,8.92-114.04.27-7.14-3.11,6.25-7.42,10.47-8.33,4.39-.95,6.91-.78,6.91-.78-7.94-5.6-51.35,10.99-22.05,15.74,79.92,12.96,145.68-5.84,124.95-15.19" style="fill:#5382a1;"/><path d="M55.57,110.21s-36.39,8.64-12.89,11.78c9.92,1.33,29.71,1.03,48.13-.52,15.06-1.27,30.18-3.97,30.18-3.97,0,0-5.31,2.27-9.15,4.9-36.95,9.72-108.34,5.2-87.79-4.74,17.38-8.4,31.51-7.45,31.51-7.45" style="fill:#5382a1;"/><path d="M120.85,146.7c37.57-19.52,20.2-38.28,8.07-35.75-2.97.62-4.3,1.15-4.3,1.15,0,0,1.1-1.73,3.21-2.48,23.98-8.43,42.43,24.87-7.74,38.06,0,0,.58-.52.75-.98" style="fill:#5382a1;"/><path d="M98.2,0s20.8,20.81-19.73,52.81c-32.5,25.67-7.41,40.31-.01,57.03-18.97-17.12-32.9-32.19-23.56-46.21,13.71-20.59,51.7-30.57,43.3-63.63" style="fill:#e76f00;"/><path d="M59.26,199.59c36.06,2.31,91.43-1.28,92.74-18.34,0,0-2.52,6.47-29.8,11.6-30.78,5.79-68.73,5.12-91.25,1.4,0,0,4.61,3.81,28.31,5.33" style="fill:#5382a1;"/><path d="M53.35,264.78c-3.4,2.95-6.99,4.61-10.22,4.61-4.6,0-7.09-2.76-7.09-7.19,0-4.79,2.66-8.29,13.35-8.29h3.96v10.87M62.74,275.37v-32.78c0-8.38-4.78-13.9-16.29-13.9-6.72,0-12.61,1.66-17.4,3.78l1.38,5.8c3.77-1.38,8.65-2.67,13.43-2.67,6.63,0,9.49,2.67,9.49,8.19v4.14h-3.31c-16.12,0-23.39,6.26-23.39,15.65,0,8.1,4.79,12.71,13.81,12.71,5.8,0,10.13-2.39,14.17-5.9l.73,4.98h7.36Z" style="fill:#e76f00;"/><path d="M94.06,275.37h-11.71l-14.09-45.85h10.22l8.74,28.17,1.94,8.47c4.42-12.25,7.55-24.68,9.12-36.64h9.94c-2.66,15.1-7.46,31.67-14.17,45.85" style="fill:#e76f00;"/><path d="M138.97,264.78c-3.41,2.95-7.01,4.61-10.23,4.61-4.59,0-7.09-2.76-7.09-7.19,0-4.79,2.67-8.29,13.36-8.29h3.96v10.87M148.35,275.37v-32.78c0-8.38-4.79-13.9-16.29-13.9-6.73,0-12.62,1.66-17.4,3.78l1.38,5.8c3.77-1.38,8.66-2.67,13.44-2.67,6.63,0,9.49,2.67,9.49,8.19v4.14h-3.32c-16.12,0-23.39,6.26-23.39,15.65,0,8.1,4.79,12.71,13.81,12.71,5.8,0,10.13-2.39,14.18-5.9l.74,4.98h7.36Z" style="fill:#e76f00;"/><path d="M16.36,283.16c-2.68,3.91-7,7-11.73,8.75l-4.63-5.45c3.6-1.85,6.69-4.83,8.12-7.61,1.24-2.47,1.76-5.66,1.76-13.28v-52.34h9.97v51.63c0,10.19-.82,14.3-3.49,18.31" style="fill:#e76f00;"/></svg>