<svg id="Layer_1" data-name="Layer 1" xmlns="http://www.w3.org/2000/svg" viewBox="0 0 491 128.53"><title>MongoDB logo - Brandlogos.net</title><path d="M176.56,333c-5-5.92-9.28-11.93-10.16-13.17a.22.22,0,0,0-.32,0c-.88,1.25-5.17,7.26-10.16,13.17-42.8,54.59,6.74,91.43,6.74,91.43l.42.28c.37,5.69,1.29,13.87,1.29,13.87h3.69s.92-8.14,1.29-13.87l.42-.32S219.36,387.57,176.56,333Zm-10.34,90.6a20.47,20.47,0,0,1-2.82-2.87v-.09l2.68-59.44a.14.14,0,1,1,.28,0L169,420.62v.09A20.47,20.47,0,0,1,166.22,423.58Z" transform="translate(-138.5 -319.74)" style="fill:#001e2b"/><path d="M258.94,411.45,238.29,361l0-.14H222.18v3.39h2.59a2.93,2.93,0,0,1,2.92,3L227.23,418a3,3,0,0,1-2.87,2.93l-2.64,0v3.34h15.65V421l-1.62,0a3,3,0,0,1-2.87-2.93V370.17l22.5,54.14a2,2,0,0,0,3.8,0l22-52.93.32,46.62a3,3,0,0,1-2.92,3H276.9v3.34h18.33V421h-2.5a3,3,0,0,1-2.92-2.93l-.14-50.75a3,3,0,0,1,2.87-3l2.68,0v-3.39H279.58Z" transform="translate(-138.5 -319.74)" style="fill:#001e2b"/><path d="M402.9,420.08a2.81,2.81,0,0,1-.79-2V393.11c0-4.74-1.39-8.47-4.18-11.12s-6.54-4-11.28-4a17.92,17.92,0,0,0-15.55,8,.36.36,0,0,1-.32.14.22.22,0,0,1-.23-.23l-1.72-6.65H366l-7.38,4.23v2.33h1.9a3.11,3.11,0,0,1,2.14.7,2.74,2.74,0,0,1,.79,2.14V418a2.71,2.71,0,0,1-2.83,2.84h-1.86v3.4h17v-3.4h-1.86A2.71,2.71,0,0,1,371,418V398.55a18.86,18.86,0,0,1,1.58-7.35,14.71,14.71,0,0,1,4.73-5.91,12.29,12.29,0,0,1,7.47-2.28c3.25,0,5.71,1,7.24,3.07a12.84,12.84,0,0,1,2.32,7.86v24a2.71,2.71,0,0,1-2.83,2.84h-1.86v3.4h17v-3.4H404.8A2.34,2.34,0,0,1,402.9,420.08Z" transform="translate(-138.5 -319.74)" style="fill:#001e2b"/><path d="M558.09,364.68a32.84,32.84,0,0,0-15.61-3.8h-22.1v3.38h2.16a3.14,3.14,0,0,1,2.3,1.06,3.27,3.27,0,0,1,1.06,2.31v49.82a3.27,3.27,0,0,1-1.06,2.31,3.24,3.24,0,0,1-2.3,1.06h-2.16v3.38h22.1a32.84,32.84,0,0,0,15.61-3.8,28.5,28.5,0,0,0,11.28-10.93,36.19,36.19,0,0,0,0-33.8A28.73,28.73,0,0,0,558.09,364.68Zm6.58,27.83c0,5.93-1.06,10.93-3.13,15a21.12,21.12,0,0,1-8.24,9,22.34,22.34,0,0,1-11.23,2.92h-4.47a3.14,3.14,0,0,1-2.3-1.07,3.27,3.27,0,0,1-1.06-2.31V369a3.17,3.17,0,0,1,1.06-2.32,3.24,3.24,0,0,1,2.3-1.06h4.47a22.34,22.34,0,0,1,11.23,2.92,21.12,21.12,0,0,1,8.24,9A33,33,0,0,1,564.67,392.51Z" transform="translate(-138.5 -319.74)" style="fill:#001e2b"/><path d="M625.79,395.89c-2-2.36-6-4.35-10.62-5.42,6.4-3.19,9.7-7.69,9.7-13.47a14.38,14.38,0,0,0-2.51-8.38,16.66,16.66,0,0,0-7.05-5.69,25.77,25.77,0,0,0-10.54-2h-25v3.38h2a3.17,3.17,0,0,1,2.32,1.06,3.26,3.26,0,0,1,1.07,2.31v49.82a3.68,3.68,0,0,1-3.39,3.38h-2.18v3.38h27.15a30.77,30.77,0,0,0,11.46-2.08,18.63,18.63,0,0,0,8.26-6.11,15.75,15.75,0,0,0,3.06-9.77A15.51,15.51,0,0,0,625.79,395.89Zm-31.14,22.46a3.26,3.26,0,0,1-1.07-2.31V393.66h12.9q6.82,0,10.44,3.47a12,12,0,0,1,3.62,9,14,14,0,0,1-1.58,6.39,12.18,12.18,0,0,1-4.78,4.91,14.84,14.84,0,0,1-7.7,1.9H597A3.29,3.29,0,0,1,594.65,418.34Zm-1-29.45V369a3.16,3.16,0,0,1,1.07-2.32,3.28,3.28,0,0,1,2.32-1.06h6.13c4.41,0,7.66,1.11,9.7,3.24a11.74,11.74,0,0,1,3.06,8.38,12.26,12.26,0,0,1-2.88,8.47c-1.9,2.08-4.78,3.15-8.59,3.15Z" transform="translate(-138.5 -319.74)" style="fill:#001e2b"/><path d="M338.23,380.94a24.29,24.29,0,0,0-11.79-3,23.67,23.67,0,0,0-11.79,3,21.77,21.77,0,0,0-8.43,8.31,25.8,25.8,0,0,0,0,24.64,21.77,21.77,0,0,0,8.43,8.31,24.3,24.3,0,0,0,11.79,3,23.67,23.67,0,0,0,11.79-3,21.77,21.77,0,0,0,8.43-8.31,25.8,25.8,0,0,0,0-24.64A21.77,21.77,0,0,0,338.23,380.94Zm3.41,20.63c0,5.68-1.38,10.29-4.14,13.61a14.66,14.66,0,0,1-22.1,0c-2.76-3.32-4.14-7.94-4.14-13.61s1.38-10.29,4.14-13.61a14.66,14.66,0,0,1,22.1,0C340.25,391.28,341.64,395.89,341.64,401.57Z" transform="translate(-138.5 -319.74)" style="fill:#001e2b"/><path d="M501.43,380.94a24.29,24.29,0,0,0-11.79-3,23.67,23.67,0,0,0-11.79,3,21.77,21.77,0,0,0-8.43,8.31,25.8,25.8,0,0,0,0,24.64,21.77,21.77,0,0,0,8.43,8.31,24.3,24.3,0,0,0,11.79,3,23.67,23.67,0,0,0,11.79-3,21.77,21.77,0,0,0,8.43-8.31,25.8,25.8,0,0,0,0-24.64A22.08,22.08,0,0,0,501.43,380.94Zm3.41,20.63c0,5.68-1.38,10.29-4.14,13.61a14.66,14.66,0,0,1-22.1,0c-2.76-3.32-4.14-7.94-4.14-13.61s1.38-10.29,4.14-13.61a14.66,14.66,0,0,1,22.1,0C503.41,391.28,504.84,395.89,504.84,401.57Z" transform="translate(-138.5 -319.74)" style="fill:#001e2b"/><path d="M435.62,378a21.86,21.86,0,0,0-10.16,2.36,18,18,0,0,0-7.19,6.44,16.34,16.34,0,0,0-2.6,8.9,15.68,15.68,0,0,0,2,7.88,17.84,17.84,0,0,0,5.29,5.75l-6.63,9a3.64,3.64,0,0,0-.32,3.8,3.6,3.6,0,0,0,3.25,2h1.9a13.87,13.87,0,0,0-4.36,4.5,11.88,11.88,0,0,0-1.81,6.21,11.46,11.46,0,0,0,5.24,9.73c3.43,2.46,8.26,3.71,14.33,3.71a34.6,34.6,0,0,0,11.92-2,21,21,0,0,0,9-5.93,13.81,13.81,0,0,0,3.43-9.36c0-3.8-1.39-6.49-4.64-9.09-2.78-2.18-7.14-3.34-12.57-3.34H423.09a.16.16,0,0,1-.09,0s0-.09,0-.14l4.82-6.49a17.06,17.06,0,0,0,3.57,1.2,18.57,18.57,0,0,0,3.76.32A22.66,22.66,0,0,0,445.63,411a18.55,18.55,0,0,0,7.28-6.44,16,16,0,0,0,2.64-8.9c0-3.43-1.67-9.69-6.21-12.89a0,0,0,0,1,0,0l10,1.11v-4.59h-16A25.86,25.86,0,0,0,435.62,378Zm5.57,29a12,12,0,0,1-5.57,1.44,11.59,11.59,0,0,1-8.16-3.29c-2.32-2.18-3.48-5.38-3.48-9.46s1.16-7.28,3.48-9.46a11.59,11.59,0,0,1,8.16-3.29,11.48,11.48,0,0,1,9.92,5.7,13.79,13.79,0,0,1,1.72,7,13.12,13.12,0,0,1-1.72,7A11,11,0,0,1,441.18,407Zm-12.57,17.06h12.57c3.48,0,5.7.7,7.19,2.18A7.93,7.93,0,0,1,450.6,432a10,10,0,0,1-4,8.25c-2.69,2.09-6.31,3.15-10.76,3.15a16.36,16.36,0,0,1-9.51-2.55,8.63,8.63,0,0,1-3.57-7.46,10,10,0,0,1,1.67-5.61A10.61,10.61,0,0,1,428.61,424.07Z" transform="translate(-138.5 -319.74)" style="fill:#001e2b"/></svg>