<svg id="Layer_1" data-name="Layer 1" xmlns="http://www.w3.org/2000/svg" viewBox="0 0 200.02 200.02"><title>Postman logo - Brandlogos.net</title><path d="M483.19,354.51A100,100,0,1,0,371.27,441h0A100,100,0,0,0,483.19,354.51Z" transform="translate(-284 -241.76)" style="fill:#ff6c37"/><path d="M420.07,306,377.91,348.2,366,336.26C407.47,294.77,411.59,298.42,420.07,306Z" transform="translate(-284 -241.76)" style="fill:#fff"/><path d="M377.91,349.21a1,1,0,0,1-.71-.3l-12-12a1,1,0,0,1,0-1.41c42.2-42.2,46.64-38.21,55.49-30.26a1,1,0,0,1,0,1.46l-42.12,42.21a1,1,0,0,1-.7.3Zm-10.53-13,10.53,10.56,40.71-40.71c-7.39-6.53-12.41-8.56-51.24,30.2Z" transform="translate(-284 -241.76)" style="fill:#ff6c37"/><path d="M390,360.29l-11.52-11.52,42.17-42.17C432,318,415.16,336.48,390,360.29Z" transform="translate(-284 -241.76)" style="fill:#fff"/><path d="M390,361.29h-.05a1.07,1.07,0,0,1-.67-.31l-11.51-11.5a1.05,1.05,0,0,1-.29-.71,1,1,0,0,1,.29-.71l42.17-42.16a1,1,0,0,1,1.41,0,12.57,12.57,0,0,1,3.91,9.33c-.16,11.09-12.79,25.18-34.57,45.78A1,1,0,0,1,390,361.29Zm-10.1-12.52L390,358.89c16.84-16,33.08-32.39,33.24-43.68a10.34,10.34,0,0,0-2.64-7.17Z" transform="translate(-284 -241.76)" style="fill:#ff6c37"/><path d="M366.25,336.55l8.51,8.5a.41.41,0,0,1-.21.69L357,349.52a1.65,1.65,0,0,1-1.52-2.78l10.23-10.19a.41.41,0,0,1,.54,0Z" transform="translate(-284 -241.76)" style="fill:#fff"/><path d="M356.64,350.56a2.65,2.65,0,0,1-1.86-4.53L365,335.84a1.42,1.42,0,0,1,2,0l8.5,8.51a1.4,1.4,0,0,1-.7,2.37l-17.55,3.78A2.76,2.76,0,0,1,356.64,350.56ZM366,337.67l-9.77,9.77a.63.63,0,0,0-.11.78.61.61,0,0,0,.71.32L373.28,345Z" transform="translate(-284 -241.76)" style="fill:#ff6c37"/><path d="M442.43,282.63a16.18,16.18,0,1,0-2.85,25.52l-11.34-11.33Z" transform="translate(-284 -241.76)" style="fill:#fff"/><path d="M431.21,311.49a17.19,17.19,0,1,1,11.91-29.58,1,1,0,0,1,0,1.43l-13.43,13.48,10.63,10.62a1,1,0,0,1-.2,1.57A17.21,17.21,0,0,1,431.21,311.49Zm0-32.34a15.16,15.16,0,1,0,6.71,28.76l-10.38-10.39a1,1,0,0,1,0-1.41L441,282.67a15.19,15.19,0,0,0-9.76-3.52Z" transform="translate(-284 -241.76)" style="fill:#ff6c37"/><path d="M442.71,282.85l-.25-.22-14.22,14.19,11.34,11.33a16,16,0,0,0,3.13-2.38,16.2,16.2,0,0,0,0-22.91Z" transform="translate(-284 -241.76)" style="fill:#fff"/><path d="M439.58,309.15a1,1,0,0,1-.71-.29l-11.33-11.34a1,1,0,0,1,0-1.41l14.17-14.19a1,1,0,0,1,1.4,0l.26.23A17.15,17.15,0,0,1,440.08,309a1,1,0,0,1-.5.13Zm-9.87-12.33,10,10.06A15.79,15.79,0,0,0,442,305a15.19,15.19,0,0,0,.46-21Z" transform="translate(-284 -241.76)" style="fill:#ff6c37"/><path d="M421.81,307.77a6.17,6.17,0,0,0-8.71,0l-37.71,37.72,6.32,6.28,39.86-35a6.16,6.16,0,0,0,.53-8.7Z" transform="translate(-284 -241.76)" style="fill:#fff"/><path d="M381.71,352.77a1,1,0,0,1-.71-.29l-6.29-6.28a1,1,0,0,1,0-1.41h0l37.68-37.71a7.16,7.16,0,1,1,10.13,10.11l-.34.32-39.86,35A1,1,0,0,1,381.71,352.77Zm-4.86-7.27,4.9,4.9L420.91,316a5.16,5.16,0,0,0-6.69-7.86q-.19.16-.36.34Z" transform="translate(-284 -241.76)" style="fill:#ff6c37"/><path d="M346.47,388.35a.91.91,0,0,0-.47,1l1.69,7.22a2,2,0,0,1-3.44,1.91l-10.93-10.93,35.89-35.88,12.35.19,8.43,8.42c-2.09,1.75-14.18,13.36-43.52,28.07Z" transform="translate(-284 -241.76)" style="fill:#fff"/><path d="M345.71,400.1a3,3,0,0,1-2.14-.9l-11-10.94a1,1,0,0,1,0-1.41L368.5,351a1,1,0,0,1,.72-.29l12.36.19a1,1,0,0,1,.69.29l8.42,8.43a1,1,0,0,1-.06,1.47l-.71.62c-10.58,9.29-25,18.55-42.93,27.53l1.68,7.15a3,3,0,0,1-1.49,3.36A3.07,3.07,0,0,1,345.71,400.1Zm-11-12.54L345,397.77a1,1,0,1,0,1.76-1h0L345,389.55a1.9,1.9,0,0,1,1-2.13c17.74-8.9,32-18.06,42.5-27.23l-7.38-7.38-11.53-.18Z" transform="translate(-284 -241.76)" style="fill:#ff6c37"/><path d="M324.71,396.15l8.59-8.59,12.77,12.77-20.4-1.4a1.63,1.63,0,0,1-1-2.78Z" transform="translate(-284 -241.76)" style="fill:#fff"/><path d="M346.09,401.33H346l-20.41-1.4a2.64,2.64,0,0,1-1.6-4.49l8.59-8.59a1,1,0,0,1,1.41,0h0l12.77,12.77a1,1,0,0,1-.71,1.71ZM333.32,389l-7.88,7.88a.62.62,0,0,0-.16.66.63.63,0,0,0,.53.43l17.69,1.21Z" transform="translate(-284 -241.76)" style="fill:#ff6c37"/><path d="M365.57,356.3a1,1,0,0,1-.71-1.7l9.72-9.72a1,1,0,0,1,1.41,0h0l6.26,6.27a1,1,0,0,1-.49,1.69l-16,3.45h-.2Zm9.72-9.3-6.58,6.61,10.87-2.35Z" transform="translate(-284 -241.76)" style="fill:#ff6c37"/><path d="M381.56,351.86l-11,2.36a1.51,1.51,0,0,1-1.39-2.55l6.08-6.08Z" transform="translate(-284 -241.76)" style="fill:#fff"/><path d="M370.27,355.25A2.51,2.51,0,0,1,368.5,351l6.08-6.08a1,1,0,0,1,1.41,0h0l6.26,6.27a1,1,0,0,1-.49,1.69l-11,2.37a2.47,2.47,0,0,1-.5,0Zm5-8.25-5.38,5.37a.49.49,0,0,0-.08.61.46.46,0,0,0,.56.26l9.16-2Z" transform="translate(-284 -241.76)" style="fill:#ff6c37"/><path d="M442.78,292.46a1.16,1.16,0,1,0-2.07,1,3.49,3.49,0,0,1-.43,3.76,1.15,1.15,0,1,0,1.78,1.47A5.79,5.79,0,0,0,442.78,292.46Z" transform="translate(-284 -241.76)" style="fill:#ff6c37"/></svg>